<?xml version="1.0" encoding="utf-8"?>
<!-- Generator: Adobe Illustrator 26.1.0, SVG Export Plug-In . SVG Version: 6.00 Build 0)  -->
<svg version="1.1" id="Capa_1" xmlns="http://www.w3.org/2000/svg" xmlns:xlink="http://www.w3.org/1999/xlink" x="0px" y="0px"
     viewBox="0 0 168 185" style="enable-background:new 0 0 168 185;" xml:space="preserve">
<style type="text/css">
	.st0{fill:#219C39;}
	.st1{fill-rule:evenodd;clip-rule:evenodd;fill:#219C39;}
	.st2{fill-rule:evenodd;clip-rule:evenodd;fill:#2B475C;}
</style>
    <polygon class="st0" points="26.3,136.2 26.3,136.2 26.3,136.2 "/>
    <polygon class="st1" points="77.6,104.1 76.3,97 72.6,91.2 67.2,87.3 60.6,85.9 54,87.3 48.6,91.2 45,97 43.7,104.1 45,111.2
	48.6,117 54,120.9 60.6,122.4 67.2,120.9 72.6,117 76.3,111.2 "/>
    <polygon class="st1" points="98.1,162.2 95,156.2 91,150.6 86.4,145.5 80.9,140.9 74.8,137 68.9,134.2 62,131.8 52.5,130
	47.7,129.8 41.8,130.1 36.1,131.1 30.8,132.7 25.8,135 26,135.4 26.3,136.2 26.3,136.3 26.4,136.3 26.5,136.6 26.9,137.5
	27.1,137.9 27.2,138.1 27.3,138.3 27.5,138.5 27.6,138.8 28.1,139.7 31.4,144.7 34.7,148.8 35.6,149.8 35.9,150.1 36.5,150.7
	37.5,151.7 37.8,151.9 38.5,152.6 38.8,152.9 39.5,153.5 39.8,153.8 40.5,154.3 41.6,155.2 41.9,155.5 42.7,156 43.1,156.3
	43.8,156.9 44.1,157.1 44.9,157.6 45.8,158.2 46.1,158.4 46.5,158.6 47.3,159.1 47.7,159.4 48.5,159.8 48.9,160.1 49.7,160.5
	50.2,160.8 51,161.2 51.4,161.4 52.3,161.8 53.1,162.2 53.7,162.5 59.1,164.6 65.3,166.3 74.8,167.4 79.4,167.3 87.7,166.1
	94.8,163.8 98.1,162.2 "/>
    <polygon class="st1" points="146.7,37.9 146.6,32.7 146.4,29.6 146.4,29.2 146.4,28.5 146.2,27.1 146.2,26.6 146.1,25.6 146,25.2
	145.9,24.5 145.9,24.1 145.7,23.1 144.7,17.7 143.5,13.1 143.2,12.1 143,11.5 142.8,10.9 142.6,10.1 142.4,9.6 142.3,9.4 142,8.5
	141.7,7.7 141.4,6.9 141.3,6.8 141.3,6.7 141.3,6.6 141.2,6.5 141.1,6.2 140.9,5.8 140.5,4.8 140.4,4.5 140.1,3.9 139.7,3.1
	139.6,2.9 139.5,2.7 139.5,2.7 139.5,2.7 139.2,2 138.8,1.4 138.8,1.2 138.3,0.4 135.9,-3.6 136.4,1.5 134.3,8.6 131.4,15.5
	129.1,20.2 126.1,25.7 123,31.2 118.5,38.7 112.5,48.2 110.9,50.9 107.7,56.2 104.9,61.1 101.9,66.5 99,72.1 95.1,81.3 91.9,91
	91.2,93.7 90.9,95 90.7,95.8 90.6,96.1 90.4,97.2 90.2,98 90.1,98.4 89.9,99.5 89.8,100.2 89.7,101 89.5,101.7 88.9,106.9
	88.5,112.8 88.4,115.3 88.4,116.9 88.7,122.8 89.8,131.6 90.9,137.3 92.4,142.9 94.4,148.5 96.5,153.9 99.2,159.3 100.5,161.7
	100.3,161 100.2,159.9 101.1,154.5 101.3,153.8 101.4,153.3 101.5,153 101.5,152.8 101.6,152.6 103,146.7 104.8,140.8 107,134.8
	109.6,129 112.6,122.9 115.9,116.9 119.4,111 126.6,99.2 127.8,97.2 131.3,91.2 134.5,85.2 137.1,80 139.4,74.7 141.4,69.3
	143.1,63.7 144.4,58.1 145.4,52.4 145.9,49.2 145.9,48.9 146.4,44 146.5,42.9 146.5,41.9 146.6,40.7 146.6,40 146.7,38.7 "/>
    <polygon class="st2" points="81,5.8 74.7,6.1 68.5,6.8 62.4,8.1 56.6,9.8 50.9,12 45.4,14.6 40.1,17.7 35.1,21.1 30.4,25 25.9,29.1
	21.7,33.6 17.8,38.5 14.3,43.6 11.1,49 8.3,54.6 5.8,60.5 3.8,66.7 2.2,73 1,79.5 0.3,86.2 0.1,93 0.3,99.8 1,106.5 2.2,113
	3.8,119.4 5.8,125.5 8.3,131.4 11.1,137 14.3,142.4 17.8,147.6 21.7,152.4 25.9,156.9 30.4,161.1 35.1,164.9 40.1,168.3 45.4,171.4
	50.9,174 56.6,176.2 62.4,177.9 68.5,179.2 74.7,180 81,180.3 87.4,180 93.5,179.2 99.6,177.9 105.4,176.2 111.1,174 116.6,171.4
	121.9,168.3 126.9,164.9 131.7,161.1 136.2,156.9 140.3,152.4 144.2,147.6 147.8,142.4 150.9,137 153.8,131.4 156.2,125.5
	158.3,119.4 159.8,113 161,106.5 161.8,99.8 162,93 161.8,86.3 161.1,79.7 159.9,73.2 158.3,67 156.3,60.9 153.9,55 151.2,49.4
	149.4,57.9 148.7,60.7 150.9,66.7 152.7,73 154,79.5 154.8,86.2 155,93 154.8,99.9 153.9,106.6 152.7,113.1 150.8,119.5
	148.6,125.5 145.9,131.4 142.8,136.9 139.3,142.2 135.4,147.1 131.2,151.6 126.6,155.8 121.8,159.6 116.6,162.9 111.2,165.8
	105.6,168.3 99.7,170.2 93.6,171.6 87.4,172.4 81,172.8 74.6,172.4 68.4,171.6 62.3,170.2 56.5,168.3 50.8,165.8 45.4,162.9
	40.3,159.6 35.4,155.8 30.8,151.6 26.6,147.1 22.7,142.2 19.2,136.9 16.1,131.4 13.4,125.5 11.2,119.5 9.4,113.1 8.1,106.6
	7.3,99.9 7,93 7.3,86.1 8.1,79.4 9.4,72.9 11.2,66.6 13.4,60.5 16.1,54.7 19.2,49.1 22.7,43.9 26.6,39 30.8,34.4 35.4,30.2
	40.3,26.5 45.4,23.1 50.8,20.2 56.5,17.8 62.3,15.9 68.4,14.5 74.6,13.6 81,13.3 88.3,13.7 95.4,14.8 102.3,16.6 108.8,19.1
	115.2,22.3 121.1,26 124.9,19.7 119.3,16.1 113.5,13.1 107.4,10.5 101.1,8.5 94.6,7 87.9,6.1 "/>
</svg>
